<svg xmlns="http://www.w3.org/2000/svg" xmlns:xlink="http://www.w3.org/1999/xlink" width="24" height="28" viewBox="0 0 24 28">
  <defs>
    <style>
      .cls-1 {
        fill: #ffde00;
        fill-rule: evenodd;
        filter: url(#filter);
      }
    </style>
    <filter id="filter" x="389" y="8430" width="24" height="28" filterUnits="userSpaceOnUse">
      <feFlood result="flood" flood-color="#1397c3"/>
      <feComposite result="composite" operator="in" in2="SourceGraphic"/>
      <feBlend result="blend" in2="SourceGraphic"/>
    </filter>
  </defs>
  <path id="shape" class="cls-1" d="M393.909,8442.88v-1.11h4.364v1.11h-4.364Zm1.636,3.35v-1.11h1.091v1.11h-1.091Zm10.364,1.67a2.231,2.231,0,1,1,2.182-2.23A2.209,2.209,0,0,1,405.909,8447.9Zm0-3.34a1.115,1.115,0,1,0,1.091,1.11A1.1,1.1,0,0,0,405.909,8444.56ZM401,8458c-4.629,0-8.132-5.03-9.55-10.01l-0.043-.15-0.151-.04a3.054,3.054,0,0,1-2.256-2.96,3.087,3.087,0,0,1,1.5-2.65l0.136-.08V8430H401a9.647,9.647,0,0,1,7.1,3.03,12.9,12.9,0,0,1,3.245,8.47l0.011,0.27H413v6.13h-2.425l-0.058.2a18.389,18.389,0,0,1-3.527,6.76A8.019,8.019,0,0,1,401,8458Zm-8.635-10.81a17.462,17.462,0,0,0,3.128,6.54,7.906,7.906,0,0,0,4.643,3.08l0.319,0.05v-3.97l-0.219-.04a3.9,3.9,0,0,1-3.044-3.55h1.094a2.787,2.787,0,0,0,1.805,2.35l0.364,0.13v-15.59H395v3.02l-3.273,3.35v0.31l-0.363.14a1.943,1.943,0,0,0,.51,3.76l0.391,0.03Zm9.18,9.67,0.318-.05a7.9,7.9,0,0,0,4.64-3.08,17.371,17.371,0,0,0,3.128-6.53l0.107-.41h2.171v-3.91h-1.636v-0.55c0-6.35-3.31-10.74-8.432-11.18l-0.3-.02v20.68h3.273v1.11h-3.273v3.94Zm-9.818-15.88,2.182-2.23v-3.67h6.546v-3.97h-8.728v9.87ZM407,8441.2v-1.11h1.091v1.11H407Zm-3.273,0v-1.11h1.091v1.11h-1.091Z" transform="translate(-389 -8430)"/>
</svg>
